<svg width="203" height="150" viewBox="0 0 203 150" fill="none" xmlns="http://www.w3.org/2000/svg">
<path d="M78.624 136.176L82.102 135.934L82.164 139.563L82.468 139.546L82.395 135.233L78.615 135.497L78.624 136.176ZM89.774 135.395L93.545 135.129L93.605 138.908L93.907 138.89L93.838 134.428L89.764 134.714L89.774 135.395ZM67.962 136.933L71.18 136.708L71.239 140.182L71.542 140.165L71.474 136.008L67.951 136.255L67.962 136.933ZM101.459 134.563L105.539 134.273L105.601 138.224L105.903 138.207L105.832 133.573L101.452 133.886L101.459 134.563ZM77.559 71.017C78.432 70.836 81.045 70.296 81.045 70.296L81.101 73.976C81.276 73.942 81.404 73.918 81.404 73.918L81.338 69.596C81.338 69.596 77.552 70.378 77.55 70.378L77.559 71.017ZM80.285 44.818C78.097 44.438 75.941 44.603 73.939 45.19C75.252 45.037 76.61 45.059 77.98 45.298C85.486 46.597 90.548 53.631 89.482 61.118L91.787 60.624C92.846 53.145 87.787 46.118 80.285 44.818ZM91.832 16.929C96.775 16.359 101.87 18.439 104.943 22.794C109.417 29.134 107.901 37.914 101.553 42.38C101.003 42.771 100.429 43.103 99.845 43.399C101.409 42.982 102.931 42.302 104.331 41.313C105.376 40.578 106.276 39.717 107.054 38.778C110.567 34.037 110.836 27.396 107.25 22.313C103.696 17.277 97.437 15.296 91.832 16.929ZM130.385 64.496L130.427 64.488C130.539 64.466 130.629 64.423 130.685 64.385L130.616 59.448L125.794 60.441C125.688 60.464 125.602 60.507 125.547 60.544L125.557 61.13L130.325 60.148L130.385 64.496ZM88.705 68.072L88.715 68.721C89.611 68.537 92.498 67.939 92.498 67.939L92.557 71.774L92.764 71.734C92.8 71.727 92.831 71.713 92.858 71.701L92.79 67.24C92.79 67.24 88.743 68.08 88.728 68.08C88.719 68.08 88.712 68.078 88.705 68.072ZM139.081 57.772L139.089 58.34C139.091 58.34 139.091 58.339 139.093 58.339L144.244 57.28L144.308 61.815C144.437 61.783 144.547 61.732 144.608 61.691L144.536 56.58L139.385 57.639C139.249 57.667 139.145 57.725 139.081 57.772ZM104.566 69.462L104.713 69.434C104.775 69.421 104.827 69.398 104.867 69.377L104.799 64.762L100.546 65.641C100.485 65.652 100.441 65.673 100.405 65.691L100.415 66.307L104.507 65.461L104.566 69.462ZM165.819 33.326C168.176 36.677 168.845 40.693 168.038 44.401L170.347 43.911C171.152 40.204 170.482 36.196 168.127 32.847C164.574 27.811 158.31 25.831 152.705 27.465C157.65 26.893 162.748 28.972 165.819 33.326ZM175.351 134.242C175.479 134.23 175.581 134.204 175.651 134.177L175.585 128.663C175.552 128.66 175.52 128.658 175.478 128.658V127.509L175.397 128.662L175.186 128.677V129.359C175.228 129.359 175.261 129.361 175.293 129.364L175.351 134.242ZM168.653 58.312L168.556 57.803L168.428 57.829L168.653 58.312ZM168.341 51.779L168.347 52.333C168.398 52.316 168.439 52.295 168.498 52.285C168.498 52.285 174.356 51.076 174.373 51.075L174.43 56.008C174.56 55.96 174.67 55.904 174.729 55.859L174.666 50.376C174.649 50.377 168.791 51.586 168.791 51.586C168.577 51.628 168.422 51.716 168.341 51.779ZM185.101 128.668C185.13 128.663 185.142 128.651 185.177 128.649L191.326 128.217L191.384 127.534L185.469 127.949C185.298 127.96 185.171 128.002 185.092 128.039L185.101 128.668ZM185.448 61.208L201.241 57.921L201.236 57.283L185.74 60.508C180.838 61.419 176.643 64.373 175.66 67.362C177.016 64.625 180.931 62.046 185.448 61.208ZM191.618 127.518L191.424 127.531V128.215C191.489 128.215 191.548 128.22 191.594 128.228L191.659 133.296C191.775 133.277 191.895 133.255 191.958 133.226L191.886 127.529C191.838 127.522 191.782 127.516 191.716 127.516V126.365L191.618 127.518ZM126.653 132.107C126.618 132.109 126.586 132.115 126.557 132.12L126.568 132.792L131.321 132.451L131.325 132.384L131.388 136.752L131.58 136.743C131.621 136.739 131.656 136.733 131.69 136.726L131.616 131.684L131.611 131.751L126.653 132.107ZM140.14 137.401L140.16 136.935L140.07 136.939L140.14 137.401ZM145.199 130.798L140.228 131.148C140.165 131.152 140.114 131.164 140.073 131.174L140.084 131.836L145.163 131.479L145.199 130.798ZM113.705 133.697C114.733 133.625 118.11 133.388 118.11 133.388L118.174 137.508C118.36 137.498 118.476 137.492 118.477 137.492L118.402 132.688C118.402 132.688 113.701 133.017 113.694 133.017L113.705 133.697ZM160.035 129.748L159.809 129.763V130.446C159.829 130.446 159.847 130.446 159.864 130.448L159.923 135.123C159.961 135.121 159.985 135.119 159.985 135.119C160.085 135.112 160.165 135.093 160.222 135.072L160.157 129.748C160.14 129.746 160.122 129.746 160.102 129.746V128.596L160.035 129.748ZM58.204 87.561C59.145 85.769 61.201 84.258 63.619 83.808L144.529 68.804C145.344 68.653 146.156 68.576 146.94 68.576C150.707 68.576 153.363 70.312 153.4 72.796L154.005 116.961C154.012 117.328 153.949 117.692 153.849 118.051C154.122 117.469 154.307 116.873 154.297 116.261L153.692 72.096C153.655 69.612 150.998 67.876 147.232 67.876C146.448 67.876 145.636 67.953 144.821 68.104L63.909 83.108C61.185 83.615 58.922 85.471 58.204 87.561ZM145.513 129.626L145.455 130.779L145.221 130.796V131.168C145.22 131.147 145.218 131.125 145.218 131.103L145.285 135.957L145.405 135.949C145.477 135.945 145.54 135.932 145.585 135.919L145.51 130.404C145.51 130.426 145.512 130.449 145.513 130.469V129.626ZM22.111 85.312L22.417 85.252L22.35 81.75L19.94 82.248L19.951 82.884L22.057 82.449L22.111 85.312ZM21.039 140.251L23.139 140.103L23.192 142.926L23.497 142.908L23.431 139.403L21.028 139.571L21.039 140.251ZM29.66 139.642L31.962 139.481L32.018 142.427L32.325 142.41L32.254 138.78L29.65 138.964L29.66 139.642ZM12.754 140.835L14.668 140.7L14.723 143.409L15.027 143.391L14.96 140L12.74 140.157L12.754 140.835ZM13.641 86.943L13.946 86.885L13.882 83.493L11.65 83.957L11.662 84.593L13.592 84.193L13.641 86.943ZM44.227 127.706L43.445 91.123C43.404 88.74 41.141 87.378 40.531 87.378L11.114 92.401V92.399C11.132 92.399 10.13 92.659 8.93 92.826L7.084 93.192L6.791 93.892L8.638 93.526C9.838 93.359 10.84 93.099 10.821 93.099V93.101L40.239 88.078C40.848 88.078 43.113 89.44 43.153 91.823L43.936 128.406C43.943 128.821 43.853 129.227 43.725 129.623C44.048 129.022 44.238 128.373 44.227 127.706ZM38.633 139.007L41.147 138.833L41.2 141.897L41.505 141.88L41.441 138.132L38.624 138.327L38.633 139.007ZM40.122 81.847L40.426 81.787L40.359 78.04L37.534 78.62L37.545 79.258L40.067 78.739L40.122 81.847ZM202.113 139.066L2.874 149.182L2.862 149.23L1.918 149.249L1.64 149.243L0.388997 149.3L0.095997 150L1.348 149.941L1.627 149.948L2.571 149.928L2.582 149.881L202.121 139.751L202.113 139.066ZM30.932 83.619L31.236 83.561L31.169 79.932L28.558 80.471L28.57 81.107L30.879 80.632L30.932 83.619ZM1.43 134.686L1.403 134.691L1.021 135.53C1.026 135.532 1.037 135.534 1.045 135.537L1.43 134.686ZM6.527 141.278L6.58 143.873L6.885 143.854L6.82 140.578L4.772 140.724L4.783 141.403L6.527 141.278ZM50.014 79.946L49.942 76.068L46.9 76.693L46.913 77.331L49.648 76.768L49.709 80.007L50.014 79.946ZM8.084 77.632C8.309 77.641 8.619 77.651 8.969 77.662C9.725 77.59 10.607 77.463 11.676 77.243L52.393 68.579C52.345 67.397 52.317 66.207 52.329 65.013C50.968 63.954 46.621 63.389 39.048 62.331C38.709 62.289 38.356 62.233 38.005 62.188L38.011 62.162C38.325 60.317 40.962 58.276 43.956 57.593L53.083 55.363C53.179 54.689 53.262 54.012 53.382 53.335C53.722 51.359 54.161 49.429 54.653 47.524C50.516 48.516 46.411 49.518 42.488 50.513C26.538 54.562 13.97 57.486 16.583 58.672C18.155 59.385 20.13 60.006 22.315 60.548L22.159 57.798C22.143 57.55 22.419 57.282 22.779 57.199L25.442 56.55C25.791 56.46 26.082 56.586 26.094 56.829L26.27 59.828C26.28 60.069 26.008 60.335 25.664 60.425L23.811 60.9C39.72 64.484 64.616 64.732 41.607 69.109C28.869 71.532 14.088 72.1 8.94 74.356C5.262 75.964 6.663 77.572 8.084 77.632ZM48.955 50.803L51.136 50.27C51.424 50.199 51.671 50.32 51.682 50.534L51.834 53.258C51.844 53.473 51.624 53.711 51.334 53.786L49.152 54.35C48.859 54.427 48.607 54.312 48.598 54.092L48.445 51.335C48.436 51.112 48.662 50.874 48.955 50.803ZM42.886 52.288L45.176 51.727C45.479 51.656 45.73 51.772 45.744 51.999L45.898 54.78C45.906 55.008 45.674 55.25 45.375 55.324L43.087 55.917C42.777 55.998 42.522 55.879 42.508 55.653L42.347 52.834C42.34 52.606 42.576 52.363 42.886 52.288ZM32.564 58.637L30.035 59.292C29.696 59.382 29.414 59.258 29.394 59.023L29.228 56.059C29.214 55.824 29.476 55.563 29.817 55.479L32.351 54.863C32.677 54.78 32.962 54.903 32.973 55.138L33.139 58.06C33.149 58.295 32.892 58.556 32.564 58.637ZM36.117 57.294L35.951 54.405C35.937 54.177 36.187 53.923 36.51 53.848L38.919 53.257C39.238 53.182 39.503 53.298 39.518 53.53L39.678 56.381C39.69 56.613 39.444 56.86 39.121 56.943L36.723 57.564C36.398 57.648 36.124 57.53 36.117 57.294ZM59.713 78.081L60.017 78.023L59.948 74.006L56.676 74.68L56.69 75.318L59.657 74.706L59.713 78.081ZM57.768 137.654L60.725 137.444L60.78 140.782L61.083 140.765L61.017 136.744L57.758 136.976L57.768 137.654ZM70.172 76.068C70.346 76.035 70.475 76.01 70.475 76.01L70.404 71.853L66.88 72.575L66.89 73.213L70.113 72.553L70.172 76.068ZM117.099 62.875L117.16 67.038L117.251 67.021C117.34 67.004 117.412 66.97 117.461 66.94L117.392 62.175L112.856 63.109C112.777 63.124 112.711 63.156 112.668 63.182L112.678 63.786L117.099 62.875ZM159.271 58.853L159.205 53.559L153.702 54.694C153.524 54.73 153.389 54.803 153.317 54.859L153.325 55.432C153.359 55.421 153.37 55.402 153.41 55.394L158.914 54.259L158.973 58.979C159.092 58.939 159.214 58.896 159.271 58.853ZM50.729 138.153L50.784 141.352L51.087 141.335L51.022 137.453L47.99 137.669L48 138.347L50.729 138.153ZM53.162 68.845L55.467 68.355C55.317 63.947 55.59 59.461 56.375 54.944C58.33 43.644 63.08 33.532 69.779 25.176C69.947 24.961 70.12 24.75 70.291 24.537C70.422 24.377 70.554 24.219 70.686 24.061C77.594 15.628 86.507 9.04 96.566 4.907C75.08 12.608 58.239 31.325 54.071 55.422C53.285 59.945 53.012 64.434 53.162 68.845ZM128.462 9.701C136.122 11.025 141.248 18.303 139.927 25.951C139.139 30.495 136.247 34.132 132.431 36.071C135.256 35.325 137.776 33.714 139.64 31.485C140.926 29.768 141.845 27.735 142.236 25.476C143.557 17.822 138.427 10.549 130.772 9.222C128.583 8.844 126.427 9.009 124.433 9.596C125.742 9.442 127.097 9.464 128.462 9.701ZM154.302 130.831L159.743 130.448L159.782 129.767L154.515 130.137C154.421 130.144 154.346 130.164 154.29 130.185L154.302 130.831ZM169.278 129.142L169.288 129.773L175.103 129.361L175.153 128.678L169.58 129.073C169.449 129.083 169.348 129.112 169.278 129.142ZM184.415 49.005L190.586 47.733C190.627 47.726 190.668 47.718 190.705 47.714L190.761 52.854C190.891 52.801 191.001 52.743 191.057 52.696L190.997 47.014C190.96 47.017 190.919 47.025 190.878 47.033L184.707 48.305C184.449 48.358 184.266 48.472 184.18 48.544L184.186 49.083C184.256 49.056 184.325 49.023 184.415 49.005Z" fill="#CCCCCC"/>
<path d="M33.224 68.868L30.887 68.591C30.573 68.553 30.356 68.347 30.401 68.138L31.014 65.493C31.061 65.28 31.351 65.141 31.663 65.182L34 65.493C34.301 65.534 34.513 65.736 34.469 65.942L33.865 68.557C33.836 68.681 33.721 68.771 33.575 68.824C34.625 68.695 35.672 68.56 36.724 68.416L37.205 66.309C37.257 66.1 37.534 65.969 37.834 66.006L40.056 66.302C40.345 66.343 40.541 66.534 40.499 66.743L40.228 67.907C40.937 67.798 41.654 67.693 42.345 67.574C42.596 67.533 42.794 67.495 43.033 67.45L43.119 67.084C43.161 66.881 43.43 66.751 43.714 66.785L45.412 67.013C45.541 66.987 45.682 66.961 45.801 66.939C46.16 66.867 46.484 66.796 46.796 66.729C47.032 66.681 47.279 66.628 47.489 66.58C47.654 66.546 47.781 66.513 47.929 66.479C48.183 66.419 48.442 66.355 48.652 66.303C46.386 65.868 42.813 65.416 39.75 65.034C35.002 64.435 29.634 63.762 24.937 62.83V62.86L23.023 62.43C22.026 62.202 21.135 61.97 20.302 61.738C19.773 61.588 19.275 61.443 18.806 61.285C18.177 61.083 17.581 60.874 17.056 60.66C17.046 60.657 17.042 60.649 17.032 60.645C16.777 60.537 16.59 60.41 16.441 60.279C16.394 60.245 16.355 60.215 16.324 60.185C16.212 60.069 16.133 59.957 16.068 59.841C16.025 59.762 15.988 59.691 15.961 59.617C15.479 61.057 14.246 67.814 13.887 71.253C17.158 70.655 21.383 70.194 26.038 69.686C28.328 69.433 30.764 69.163 33.224 68.868ZM20.829 66.978C20.778 67.195 20.466 67.345 20.13 67.303L17.541 66.992C17.191 66.955 16.953 66.738 17.002 66.513L17.642 63.729C17.693 63.508 18.016 63.365 18.364 63.411L20.942 63.752C21.28 63.8 21.51 64.014 21.459 64.231L20.829 66.978ZM23.877 67.348L24.496 64.635C24.545 64.415 24.855 64.276 25.185 64.321L27.635 64.647C27.952 64.692 28.173 64.898 28.128 65.111L27.508 67.79C27.463 68.003 27.163 68.142 26.834 68.104L24.38 67.809C24.051 67.771 23.823 67.565 23.877 67.348ZM202.072 121.646L187.267 122.368C180.968 122.858 175.93 120.013 175.875 116.033L175.286 68.725C175.235 64.729 180.2 60.554 186.506 59.382L201.374 56.288L201.201 39.853L12.676 79.961C5.151 81.52 6.103 78.809 6.103 78.809C6.103 78.809 5.841 79.294 5.742 79.77C5.209 82.213 5.491 88.737 5.838 90.57C5.998 91.861 7.888 91.914 9.523 91.715L9.519 91.736L9.774 91.686C10.942 91.525 11.92 91.267 11.92 91.267L41.393 86.237C42.592 86.082 45.541 88.037 45.598 91.099L46.377 127.685C46.432 130.739 43.578 133.44 40.059 133.711L4.94 136.811L4.911 136.888C0.0509968 137.091 0.762997 135.526 0.762997 135.526C0.762997 135.526 0.188997 135.634 0.071997 136.298C-0.041003 138.588 -0.004003 143.808 0.110997 145.546C0.163997 147.508 1.634 147.961 2.427 148.066L2.431 148.105L2.693 148.094C2.824 148.099 2.922 148.099 2.922 148.099L2.926 148.081L202.255 137.959L202.072 121.646ZM185.476 47.179L191.64 45.908C192.458 45.736 193.139 46.013 193.143 46.516L193.209 52.86C193.219 53.365 192.548 53.904 191.724 54.065L185.578 55.243C184.765 55.403 184.102 55.124 184.106 54.626L184.027 48.383C184.027 47.884 184.672 47.345 185.476 47.179ZM15.373 87.973L12.312 88.556C11.906 88.639 11.585 88.414 11.576 88.062L11.494 83.66C11.488 83.309 11.801 82.952 12.205 82.877L15.266 82.241C15.673 82.159 16.002 82.381 16.018 82.735L16.101 87.187C16.107 87.546 15.789 87.892 15.373 87.973ZM23.814 86.345L20.634 86.96C20.219 87.041 19.874 86.814 19.865 86.455L19.782 81.963C19.772 81.605 20.102 81.245 20.521 81.161L23.702 80.504C24.132 80.414 24.473 80.636 24.483 81.005L24.569 85.54C24.578 85.907 24.241 86.266 23.814 86.345ZM32.602 84.661L29.291 85.293C28.853 85.381 28.5 85.149 28.488 84.786L28.402 80.202C28.399 79.832 28.74 79.467 29.18 79.373L32.488 78.69C32.935 78.602 33.297 78.829 33.303 79.197L33.389 83.833C33.396 84.205 33.046 84.573 32.602 84.661ZM41.756 82.895L38.303 83.562C37.846 83.648 37.477 83.416 37.468 83.045L37.379 78.368C37.373 77.993 37.738 77.612 38.193 77.517L41.652 76.808C42.113 76.715 42.494 76.943 42.494 77.319L42.58 82.054C42.584 82.433 42.219 82.811 41.756 82.895ZM8.348 144.979L5.401 145.149C5.021 145.173 4.708 144.914 4.692 144.571L4.614 140.276C4.61 139.931 4.901 139.629 5.293 139.606L8.239 139.397C8.632 139.365 8.95 139.626 8.958 139.976L9.046 144.313C9.057 144.662 8.736 144.966 8.348 144.979ZM16.455 144.519L13.4 144.697C13.002 144.719 12.673 144.453 12.669 144.104L12.583 139.724C12.578 139.374 12.893 139.062 13.292 139.037L16.35 138.82C16.762 138.791 17.092 139.051 17.099 139.411L17.185 143.84C17.191 144.189 16.867 144.498 16.455 144.519ZM24.902 144.036L21.722 144.217C21.302 144.243 20.958 143.973 20.952 143.618L20.867 139.148C20.862 138.79 21.192 138.479 21.606 138.449L24.79 138.224C25.218 138.196 25.558 138.46 25.569 138.825L25.653 143.344C25.664 143.703 25.325 144.01 24.902 144.036ZM33.682 143.542L30.377 143.727C29.934 143.749 29.584 143.477 29.572 143.112L29.49 138.551C29.482 138.188 29.824 137.869 30.265 137.837L33.575 137.606C34.024 137.573 34.377 137.842 34.392 138.21L34.48 142.825C34.479 143.192 34.131 143.508 33.682 143.542ZM42.84 143.013L39.385 143.211C38.932 143.238 38.555 142.956 38.547 142.587L38.465 137.932C38.461 137.561 38.819 137.236 39.279 137.2L42.728 136.961C43.191 136.926 43.566 137.2 43.578 137.578L43.66 142.285C43.669 142.659 43.302 142.989 42.84 143.013ZM154.47 53.567L159.988 52.43C160.73 52.278 161.342 52.542 161.349 53.015L161.422 59.023C161.429 59.502 160.829 60.007 160.087 60.149L154.566 61.212C153.846 61.35 153.254 61.073 153.253 60.606L153.164 54.69C153.16 54.215 153.744 53.715 154.47 53.567ZM140.154 56.512L145.395 55.434C146.101 55.288 146.671 55.554 146.68 56.018L146.759 61.863C146.767 62.331 146.199 62.817 145.493 62.955L140.253 63.962C139.567 64.093 139.014 63.831 139.005 63.363L138.928 57.605C138.92 57.145 139.47 56.658 140.154 56.512ZM126.561 59.314L131.54 58.289C132.206 58.147 132.754 58.409 132.758 58.862L132.839 64.564C132.846 65.017 132.304 65.488 131.646 65.616L126.662 66.577C126.008 66.701 125.481 66.434 125.474 65.986L125.396 60.37C125.391 59.925 125.904 59.454 126.561 59.314ZM113.622 61.982L118.364 61.005C118.997 60.871 119.532 61.125 119.529 61.57L119.612 67.123C119.618 67.568 119.101 68.028 118.466 68.148L113.728 69.061C113.112 69.181 112.606 68.923 112.596 68.481L112.514 63.002C112.511 62.566 113.005 62.11 113.622 61.982ZM101.313 64.516L105.821 63.584C106.43 63.464 106.934 63.711 106.942 64.145L107.02 69.563C107.03 69.997 106.536 70.446 105.931 70.562L101.417 71.43C100.822 71.542 100.34 71.287 100.336 70.861L100.254 65.51C100.246 65.084 100.715 64.639 101.313 64.516ZM89.562 66.937L93.874 66.05C94.451 65.934 94.923 66.174 94.933 66.6L95.011 71.891C95.023 72.314 94.562 72.748 93.98 72.864L89.671 73.687C89.112 73.795 88.644 73.545 88.637 73.126L88.555 67.899C88.55 67.483 89.003 67.053 89.562 66.937ZM78.355 69.246L82.47 68.396C83.023 68.284 83.468 68.531 83.475 68.942L83.556 74.113C83.562 74.525 83.131 74.944 82.583 75.056L78.465 75.844C77.926 75.944 77.478 75.698 77.476 75.292L77.396 70.185C77.389 69.773 77.818 69.354 78.355 69.246ZM67.647 71.449L71.579 70.645C72.105 70.537 72.535 70.772 72.543 71.176L72.629 76.231C72.633 76.633 72.211 77.041 71.686 77.14L67.758 77.9C67.237 77.999 66.818 77.756 66.807 77.356L66.725 72.366C66.717 71.965 67.127 71.558 67.647 71.449ZM46.838 81.232L46.746 76.448C46.74 76.065 47.122 75.679 47.597 75.582L51.194 74.843C51.679 74.745 52.078 74.974 52.077 75.359L52.169 80.197C52.171 80.584 51.791 80.97 51.303 81.061L47.703 81.755C47.234 81.844 46.844 81.61 46.838 81.232ZM52.385 142.47L48.787 142.676C48.315 142.7 47.926 142.417 47.912 142.04L47.833 137.283C47.823 136.906 48.207 136.571 48.676 136.539L52.276 136.283C52.758 136.243 53.154 136.532 53.164 136.913L53.244 141.726C53.252 142.11 52.867 142.442 52.385 142.47ZM56.611 79.331L56.522 74.45C56.513 74.065 56.906 73.668 57.4 73.563L61.164 72.789C61.666 72.685 62.078 72.92 62.085 73.317L62.169 78.255C62.175 78.651 61.773 79.053 61.277 79.145L57.508 79.871C57.018 79.965 56.611 79.726 56.611 79.331ZM62.347 141.901L58.586 142.114C58.093 142.142 57.69 141.85 57.685 141.463L57.602 136.609C57.595 136.218 57.987 135.876 58.48 135.846L62.241 135.578C62.74 135.544 63.152 135.834 63.158 136.224L63.238 141.137C63.252 141.532 62.85 141.873 62.347 141.901ZM58.459 125.093L57.793 88.992C57.74 85.838 60.803 82.702 64.701 81.978L145.609 66.975C151.161 65.942 155.785 68.22 155.843 72.081L156.448 116.246C156.5 120.089 151.969 123.558 146.419 123.988L65.567 130.242C61.67 130.547 58.516 128.237 58.459 125.093ZM72.752 141.305L68.828 141.53C68.314 141.563 67.885 141.263 67.879 140.869L67.795 135.904C67.787 135.509 68.199 135.157 68.711 135.12L72.651 134.843C73.172 134.806 73.609 135.1 73.613 135.5L73.695 140.526C73.703 140.928 73.276 141.272 72.752 141.305ZM83.633 140.687L79.529 140.925C78.995 140.952 78.546 140.65 78.542 140.243L78.457 135.166C78.448 134.76 78.882 134.4 79.425 134.357L83.53 134.071C84.085 134.034 84.532 134.332 84.536 134.743L84.624 139.881C84.625 140.3 84.193 140.655 83.633 140.687ZM95.021 140.036L90.723 140.281C90.158 140.314 89.699 140.004 89.691 139.591L89.609 134.396C89.601 133.981 90.053 133.612 90.615 133.575L94.922 133.271C95.502 133.225 95.973 133.533 95.981 133.953L96.063 139.214C96.068 139.636 95.603 140 95.021 140.036ZM106.968 139.354L102.461 139.609C101.86 139.645 101.386 139.329 101.379 138.902L101.296 133.587C101.29 133.162 101.762 132.784 102.356 132.741L106.86 132.42C107.464 132.379 107.965 132.694 107.974 133.125L108.056 138.513C108.062 138.938 107.571 139.321 106.968 139.354ZM119.491 138.639L114.754 138.91C114.131 138.944 113.628 138.62 113.621 138.19L113.542 132.744C113.535 132.303 114.031 131.917 114.656 131.872L119.385 131.539C120.022 131.494 120.543 131.816 120.546 132.256L120.632 137.777C120.64 138.21 120.123 138.604 119.491 138.639ZM132.646 137.89L127.669 138.172C127.011 138.206 126.493 137.875 126.483 137.43L126.404 131.851C126.398 131.404 126.912 131.002 127.57 130.96L132.546 130.605C133.201 130.568 133.757 130.888 133.759 131.342L133.843 137.001C133.849 137.452 133.31 137.849 132.646 137.89ZM146.472 137.095L141.245 137.399C140.564 137.436 140.001 137.101 140 136.643L139.921 130.915C139.917 130.453 140.465 130.048 141.149 130.001L146.373 129.632C147.081 129.581 147.655 129.914 147.659 130.381L147.74 136.186C147.746 136.651 147.176 137.058 146.472 137.095ZM161.05 136.266L155.534 136.58C154.809 136.621 154.228 136.275 154.222 135.805L154.138 129.934C154.132 129.462 154.715 129.041 155.435 128.991L160.953 128.602C161.691 128.549 162.298 128.892 162.302 129.367L162.374 135.327C162.376 135.805 161.786 136.223 161.05 136.266ZM168.26 57.698L168.189 51.622C168.175 51.136 168.792 50.615 169.559 50.458L175.382 49.257C176.162 49.096 176.804 49.365 176.808 49.859L176.881 56.029C176.884 56.517 176.254 57.038 175.48 57.189L169.654 58.312C168.885 58.451 168.266 58.181 168.26 57.698ZM176.403 135.391L170.589 135.72C169.828 135.763 169.205 135.409 169.206 134.93L169.126 128.895C169.124 128.413 169.742 127.98 170.498 127.926L176.313 127.515C177.095 127.458 177.722 127.808 177.728 128.299L177.802 134.426C177.813 134.911 177.186 135.342 176.403 135.391ZM192.618 134.466L186.482 134.813C185.673 134.86 185.017 134.499 185.014 133.999L184.939 127.8C184.939 127.308 185.582 126.859 186.387 126.804L192.531 126.372C193.355 126.31 194.03 126.669 194.03 127.175L194.11 133.469C194.11 133.971 193.445 134.416 192.618 134.466Z" fill="#27AAE1"/>
<path d="M178.225 40.9243C169.994 20.6633 151.808 4.97429 128.669 0.971294C93.0169 -5.20271 59.1159 18.7013 52.9479 54.3533C52.1609 58.8743 51.8889 63.3633 52.0399 67.7743L62.5789 65.5333C60.7969 62.7003 59.9889 59.2403 60.6079 55.6783C61.9279 48.0333 69.2079 42.9043 76.8569 44.2263C84.3639 45.5283 89.4239 52.5593 88.3589 60.0483L110.91 55.2503C110.226 54.9093 109.704 54.7203 109.704 54.7203L109.913 53.9843C109.913 53.9843 113.599 54.6933 115.239 53.3983C116.927 52.0783 117.016 48.2093 117.016 48.2093L117.464 48.1923L117.725 48.1773C117.725 48.1773 118.173 52.0183 119.958 53.2043C120.008 53.2403 120.077 53.2533 120.132 53.2853L141.882 48.6593C141.83 48.5883 141.769 48.5323 141.716 48.4603C137.236 42.1113 138.753 33.3403 145.102 28.8693C151.448 24.3983 160.22 25.9133 164.698 32.2553C167.053 35.6063 167.722 39.6233 166.915 43.3313L178.225 40.9243ZM100.43 41.3133C94.0859 45.7923 85.3169 44.2763 80.8429 37.9233C76.3729 31.5813 77.8909 22.8033 84.2359 18.3323C90.5769 13.8613 99.3469 15.3843 103.821 21.7223C108.296 28.0653 106.781 36.8433 100.43 41.3133ZM138.805 24.8843C137.477 32.5353 130.201 37.6633 122.548 36.3373C114.898 35.0143 109.773 27.7383 111.102 20.0873C112.42 12.4403 119.695 7.31029 127.341 8.63029C134.998 9.95729 140.125 17.2303 138.805 24.8843Z" fill="#004263"/>
</svg>
